<svg width="15" height="21" viewBox="0 0 15 21" fill="none" xmlns="http://www.w3.org/2000/svg">
<path fill-rule="evenodd" clip-rule="evenodd" d="M10.27 20.1603C11.0003 20.1603 11.5923 19.5731 11.5923 18.8488C11.5923 18.1244 11.0003 17.5371 10.27 17.5371H10.0708C10.8011 17.5371 11.3931 18.1244 11.3931 18.8488C11.3931 19.5731 10.8011 20.1603 10.0708 20.1603H10.27Z" fill="#EE1D51"/>
<path fill-rule="evenodd" clip-rule="evenodd" d="M10.0528 17.5371H9.85365C9.12338 17.5371 8.53125 18.1244 8.53125 18.8488C8.53125 19.5731 9.12338 20.1603 9.85365 20.1603H10.0528C9.32248 20.1603 8.73045 19.5731 8.73045 18.8488C8.73045 18.1244 9.32248 17.5371 10.0528 17.5371Z" fill="#66C8CF"/>
<path d="M10.0618 19.4864C10.417 19.4864 10.7049 19.2009 10.7049 18.8487C10.7049 18.4965 10.417 18.2109 10.0618 18.2109C9.70663 18.2109 9.4187 18.4965 9.4187 18.8487C9.4187 19.2009 9.70663 19.4864 10.0618 19.4864Z" fill="#010101"/>
<path fill-rule="evenodd" clip-rule="evenodd" d="M0 16.9443V17.6091H0.778752V20.1424H1.55779V17.6271H2.19168L2.40902 16.9443H0ZM6.37584 16.9443V17.6091H7.15459V20.1424H7.93363V17.6271H8.56752L8.78486 16.9443H6.37584ZM2.55408 17.3216C2.55408 17.1133 2.7241 16.9443 2.93414 16.9443C3.14438 16.9443 3.31459 17.1133 3.31459 17.3216C3.31459 17.5299 3.14448 17.6989 2.93414 17.6989C2.7241 17.6988 2.55408 17.5299 2.55408 17.3216ZM2.55408 17.9685H3.31459V20.1424H2.55408V17.9685ZM3.6407 16.9443V20.1424H4.4015V19.316L4.63699 19.1002L5.37955 20.1603H6.19459L5.12582 18.6152L6.08582 17.6808H5.16211L4.4015 18.4354V16.9443H3.6407ZM11.8458 16.9443V20.1424H12.6067V19.316L12.8421 19.1002L13.5849 20.1603H14.4L13.3312 18.6152L14.2912 17.6808H13.3675L12.6067 18.4354V16.9443H11.8458Z" fill="white"/>
<path fill-rule="evenodd" clip-rule="evenodd" d="M10.6721 5.87434C11.7227 6.62497 13.0099 7.06666 14.4 7.06666V4.39297C14.1369 4.39307 13.8745 4.36563 13.6171 4.31108V6.41569C12.2271 6.41569 10.9401 5.97399 9.88923 5.22337V10.6795C9.88923 13.409 7.67547 15.6215 4.94475 15.6215C3.9259 15.6215 2.97886 15.3136 2.19214 14.7856C3.09003 15.7032 4.34215 16.2725 5.72744 16.2725C8.45835 16.2725 10.6722 14.06 10.6722 11.3304L10.6721 5.87434ZM11.6379 3.17694C11.1009 2.59066 10.7484 1.83294 10.6721 0.995239V0.651367H9.93022C10.1169 1.71601 10.7539 2.62561 11.6379 3.17694ZM3.91927 12.6912C3.61932 12.2981 3.45717 11.8171 3.4579 11.3226C3.4579 10.0742 4.47051 9.06212 5.71975 9.06212C5.95254 9.06196 6.18396 9.09767 6.40587 9.16801V6.4346C6.14659 6.39909 5.88492 6.38404 5.62327 6.38958V8.51713C5.40127 8.44679 5.16976 8.41108 4.93688 8.41124C3.68763 8.41124 2.67511 9.42337 2.67511 10.6718C2.67511 11.5546 3.18123 12.3189 3.91927 12.6912Z" fill="#EE1D52"/>
<path fill-rule="evenodd" clip-rule="evenodd" d="M9.88908 5.22337C10.94 5.97399 12.227 6.41569 13.617 6.41569V4.31108C12.8411 4.14596 12.1542 3.74065 11.6377 3.17694C10.7538 2.62561 10.1168 1.71601 9.93007 0.651367H7.98137V11.3303C7.97695 12.5752 6.96607 13.5832 5.71952 13.5832C4.98492 13.5832 4.33231 13.2333 3.91903 12.6912C3.18099 12.3189 2.67487 11.5546 2.67487 10.6718C2.67487 9.42337 3.68739 8.41124 4.93664 8.41124C5.17596 8.41124 5.40665 8.44849 5.62303 8.51713V6.38958C2.94031 6.44497 0.782715 8.63588 0.782715 11.3304C0.782715 12.6755 1.32003 13.8949 2.19199 14.7857C2.97871 15.3137 3.92576 15.6216 4.9446 15.6216C7.67532 15.6216 9.88908 13.409 9.88908 10.6796V5.22337Z" fill="white"/>
<path fill-rule="evenodd" clip-rule="evenodd" d="M13.617 4.31059V3.7415C12.9173 3.74256 12.2314 3.54671 11.6378 3.17635C12.1633 3.75137 12.8552 4.14791 13.617 4.31059ZM9.93014 0.65088C9.91231 0.549145 9.89863 0.446723 9.88915 0.343872V0H7.19846V10.679C7.19414 11.9239 6.18336 12.9319 4.9367 12.9319C4.57066 12.9319 4.22515 12.8451 3.9191 12.6907C4.33238 13.2328 4.98499 13.5828 5.71958 13.5828C6.96605 13.5828 7.97702 12.5748 7.98144 11.3298V0.65088H9.93014ZM5.6232 6.38909V5.78323C5.39836 5.75249 5.17169 5.73713 4.94477 5.73725C2.21376 5.73725 0 7.94986 0 10.679C0 12.3901 0.870048 13.8981 2.19216 14.7852C1.32019 13.8943 0.78288 12.6749 0.78288 11.3298C0.78288 8.63539 2.94038 6.44448 5.6232 6.38909Z" fill="#69C9D0"/>
<path fill-rule="evenodd" clip-rule="evenodd" d="M10.0708 20.1603C10.8011 20.1603 11.3932 19.5731 11.3932 18.8488C11.3932 18.1244 10.8011 17.5371 10.0708 17.5371H10.0528C9.3225 17.5371 8.73047 18.1244 8.73047 18.8488C8.73047 19.5731 9.3225 20.1603 10.0528 20.1603H10.0708ZM9.41879 18.8488C9.41879 18.4964 9.70679 18.211 10.062 18.211C10.4169 18.211 10.7049 18.4964 10.7049 18.8488C10.7049 19.2011 10.4169 19.4867 10.062 19.4867C9.70679 19.4866 9.41879 19.2011 9.41879 18.8488Z" fill="white"/>
</svg>
